<mxfile host="app.diagrams.net" modified="2020-03-13T16:55:56.075Z" agent="Mozilla/5.0 (Windows NT 10.0; Win64; x64) AppleWebKit/537.36 (KHTML, like Gecko) Chrome/79.0.3945.136 YaBrowser/20.2.4.141 Yowser/2.5 Safari/537.36" etag="w_YHjHG3dqrCO6pRmarh" version="12.8.4" type="github">
  <diagram id="M2v9OtbhASXZDHdSWJYJ" name="Page-1">
    <mxGraphModel dx="1422" dy="761" grid="1" gridSize="10" guides="1" tooltips="1" connect="1" arrows="1" fold="1" page="1" pageScale="1" pageWidth="827" pageHeight="1169" math="0" shadow="0">
      <root>
        <mxCell id="0" />
        <mxCell id="1" parent="0" />
        <mxCell id="l5dD-DMRnh2UDKKwASvm-28" style="edgeStyle=orthogonalEdgeStyle;rounded=0;orthogonalLoop=1;jettySize=auto;html=1;exitX=0.5;exitY=0;exitDx=0;exitDy=0;entryX=0;entryY=0.5;entryDx=0;entryDy=0;" parent="1" source="l5dD-DMRnh2UDKKwASvm-1" target="l5dD-DMRnh2UDKKwASvm-8" edge="1">
          <mxGeometry relative="1" as="geometry" />
        </mxCell>
        <mxCell id="l5dD-DMRnh2UDKKwASvm-82" style="edgeStyle=orthogonalEdgeStyle;rounded=0;orthogonalLoop=1;jettySize=auto;html=1;exitX=0.75;exitY=1;exitDx=0;exitDy=0;entryX=0.25;entryY=0;entryDx=0;entryDy=0;" parent="1" source="l5dD-DMRnh2UDKKwASvm-1" target="l5dD-DMRnh2UDKKwASvm-59" edge="1">
          <mxGeometry relative="1" as="geometry">
            <Array as="points">
              <mxPoint x="330" y="560" />
              <mxPoint x="870" y="560" />
            </Array>
          </mxGeometry>
        </mxCell>
        <mxCell id="l5dD-DMRnh2UDKKwASvm-1" value="createimage" style="rounded=0;whiteSpace=wrap;html=1;fillColor=#d5e8d4;strokeColor=#82b366;" parent="1" vertex="1">
          <mxGeometry x="240" y="200" width="120" height="60" as="geometry" />
        </mxCell>
        <mxCell id="l5dD-DMRnh2UDKKwASvm-11" style="edgeStyle=orthogonalEdgeStyle;rounded=0;orthogonalLoop=1;jettySize=auto;html=1;exitX=0;exitY=0.5;exitDx=0;exitDy=0;entryX=1;entryY=0.5;entryDx=0;entryDy=0;" parent="1" source="l5dD-DMRnh2UDKKwASvm-2" target="l5dD-DMRnh2UDKKwASvm-1" edge="1">
          <mxGeometry relative="1" as="geometry" />
        </mxCell>
        <mxCell id="l5dD-DMRnh2UDKKwASvm-21" style="edgeStyle=orthogonalEdgeStyle;rounded=0;orthogonalLoop=1;jettySize=auto;html=1;exitX=1;exitY=0.5;exitDx=0;exitDy=0;entryX=0;entryY=0.5;entryDx=0;entryDy=0;" parent="1" source="l5dD-DMRnh2UDKKwASvm-2" target="l5dD-DMRnh2UDKKwASvm-9" edge="1">
          <mxGeometry relative="1" as="geometry" />
        </mxCell>
        <mxCell id="l5dD-DMRnh2UDKKwASvm-2" value="loadimage" style="rounded=0;whiteSpace=wrap;html=1;fillColor=#ffe6cc;strokeColor=#d79b00;" parent="1" vertex="1">
          <mxGeometry x="440" y="200" width="120" height="60" as="geometry" />
        </mxCell>
        <mxCell id="l5dD-DMRnh2UDKKwASvm-62" style="edgeStyle=orthogonalEdgeStyle;rounded=0;orthogonalLoop=1;jettySize=auto;html=1;exitX=0;exitY=0.5;exitDx=0;exitDy=0;entryX=0.5;entryY=1;entryDx=0;entryDy=0;" parent="1" source="l5dD-DMRnh2UDKKwASvm-4" target="l5dD-DMRnh2UDKKwASvm-1" edge="1">
          <mxGeometry relative="1" as="geometry" />
        </mxCell>
        <mxCell id="l5dD-DMRnh2UDKKwASvm-66" style="edgeStyle=orthogonalEdgeStyle;rounded=0;orthogonalLoop=1;jettySize=auto;html=1;exitX=1;exitY=0.5;exitDx=0;exitDy=0;entryX=0.25;entryY=1;entryDx=0;entryDy=0;" parent="1" source="l5dD-DMRnh2UDKKwASvm-4" target="l5dD-DMRnh2UDKKwASvm-9" edge="1">
          <mxGeometry relative="1" as="geometry" />
        </mxCell>
        <mxCell id="l5dD-DMRnh2UDKKwASvm-4" value="scaleimage" style="rounded=0;whiteSpace=wrap;html=1;fillColor=#ffe6cc;strokeColor=#d79b00;" parent="1" vertex="1">
          <mxGeometry x="440" y="340" width="120" height="60" as="geometry" />
        </mxCell>
        <mxCell id="l5dD-DMRnh2UDKKwASvm-32" style="edgeStyle=orthogonalEdgeStyle;rounded=0;orthogonalLoop=1;jettySize=auto;html=1;exitX=0.5;exitY=0;exitDx=0;exitDy=0;entryX=0.5;entryY=0;entryDx=0;entryDy=0;" parent="1" source="l5dD-DMRnh2UDKKwASvm-5" target="l5dD-DMRnh2UDKKwASvm-8" edge="1">
          <mxGeometry relative="1" as="geometry" />
        </mxCell>
        <mxCell id="l5dD-DMRnh2UDKKwASvm-83" style="edgeStyle=orthogonalEdgeStyle;rounded=0;orthogonalLoop=1;jettySize=auto;html=1;exitX=0.5;exitY=1;exitDx=0;exitDy=0;entryX=0;entryY=0.25;entryDx=0;entryDy=0;" parent="1" source="l5dD-DMRnh2UDKKwASvm-5" target="l5dD-DMRnh2UDKKwASvm-60" edge="1">
          <mxGeometry relative="1" as="geometry">
            <Array as="points">
              <mxPoint x="100" y="580" />
              <mxPoint x="620" y="580" />
              <mxPoint x="620" y="635" />
            </Array>
          </mxGeometry>
        </mxCell>
        <mxCell id="l5dD-DMRnh2UDKKwASvm-5" value="updateimage" style="rounded=0;whiteSpace=wrap;html=1;fillColor=#d5e8d4;strokeColor=#82b366;" parent="1" vertex="1">
          <mxGeometry x="40" y="200" width="120" height="60" as="geometry" />
        </mxCell>
        <mxCell id="l5dD-DMRnh2UDKKwASvm-67" style="edgeStyle=orthogonalEdgeStyle;rounded=0;orthogonalLoop=1;jettySize=auto;html=1;exitX=1;exitY=0.5;exitDx=0;exitDy=0;entryX=0.75;entryY=1;entryDx=0;entryDy=0;" parent="1" source="l5dD-DMRnh2UDKKwASvm-6" target="l5dD-DMRnh2UDKKwASvm-9" edge="1">
          <mxGeometry relative="1" as="geometry" />
        </mxCell>
        <mxCell id="l5dD-DMRnh2UDKKwASvm-75" style="edgeStyle=orthogonalEdgeStyle;rounded=0;orthogonalLoop=1;jettySize=auto;html=1;exitX=0;exitY=0.5;exitDx=0;exitDy=0;entryX=0.75;entryY=1;entryDx=0;entryDy=0;" parent="1" source="l5dD-DMRnh2UDKKwASvm-6" target="l5dD-DMRnh2UDKKwASvm-5" edge="1">
          <mxGeometry relative="1" as="geometry" />
        </mxCell>
        <mxCell id="l5dD-DMRnh2UDKKwASvm-6" value="changerectimage" style="rounded=0;whiteSpace=wrap;html=1;fillColor=#ffe6cc;strokeColor=#d79b00;" parent="1" vertex="1">
          <mxGeometry x="440" y="480" width="120" height="60" as="geometry" />
        </mxCell>
        <mxCell id="l5dD-DMRnh2UDKKwASvm-76" style="edgeStyle=orthogonalEdgeStyle;rounded=0;orthogonalLoop=1;jettySize=auto;html=1;exitX=0;exitY=0.5;exitDx=0;exitDy=0;entryX=0.25;entryY=1;entryDx=0;entryDy=0;" parent="1" source="l5dD-DMRnh2UDKKwASvm-7" target="l5dD-DMRnh2UDKKwASvm-5" edge="1">
          <mxGeometry relative="1" as="geometry" />
        </mxCell>
        <mxCell id="l5dD-DMRnh2UDKKwASvm-87" style="edgeStyle=orthogonalEdgeStyle;rounded=0;orthogonalLoop=1;jettySize=auto;html=1;exitX=0.5;exitY=0;exitDx=0;exitDy=0;entryX=0.25;entryY=0;entryDx=0;entryDy=0;" parent="1" source="l5dD-DMRnh2UDKKwASvm-7" target="l5dD-DMRnh2UDKKwASvm-58" edge="1">
          <mxGeometry relative="1" as="geometry">
            <Array as="points">
              <mxPoint x="500" y="600" />
              <mxPoint x="1030" y="600" />
            </Array>
          </mxGeometry>
        </mxCell>
        <mxCell id="l5dD-DMRnh2UDKKwASvm-7" value="blitimage" style="rounded=0;whiteSpace=wrap;html=1;fillColor=#ffe6cc;strokeColor=#d79b00;" parent="1" vertex="1">
          <mxGeometry x="440" y="620" width="120" height="60" as="geometry" />
        </mxCell>
        <mxCell id="l5dD-DMRnh2UDKKwASvm-8" value="Image" style="rounded=0;whiteSpace=wrap;html=1;fillColor=#f8cecc;strokeColor=#b85450;" parent="1" vertex="1">
          <mxGeometry x="440" y="60" width="120" height="60" as="geometry" />
        </mxCell>
        <mxCell id="l5dD-DMRnh2UDKKwASvm-29" style="edgeStyle=orthogonalEdgeStyle;rounded=0;orthogonalLoop=1;jettySize=auto;html=1;exitX=0.5;exitY=0;exitDx=0;exitDy=0;entryX=1;entryY=0.5;entryDx=0;entryDy=0;" parent="1" source="l5dD-DMRnh2UDKKwASvm-9" target="l5dD-DMRnh2UDKKwASvm-8" edge="1">
          <mxGeometry relative="1" as="geometry" />
        </mxCell>
        <mxCell id="l5dD-DMRnh2UDKKwASvm-86" style="edgeStyle=orthogonalEdgeStyle;rounded=0;orthogonalLoop=1;jettySize=auto;html=1;exitX=1;exitY=0.5;exitDx=0;exitDy=0;entryX=0.75;entryY=0;entryDx=0;entryDy=0;" parent="1" source="l5dD-DMRnh2UDKKwASvm-9" target="l5dD-DMRnh2UDKKwASvm-58" edge="1">
          <mxGeometry relative="1" as="geometry" />
        </mxCell>
        <mxCell id="l5dD-DMRnh2UDKKwASvm-9" value="createstaticimage" style="rounded=0;whiteSpace=wrap;html=1;fillColor=#d5e8d4;strokeColor=#82b366;" parent="1" vertex="1">
          <mxGeometry x="640" y="200" width="120" height="60" as="geometry" />
        </mxCell>
        <mxCell id="l5dD-DMRnh2UDKKwASvm-33" value="Text" style="rounded=0;whiteSpace=wrap;html=1;fillColor=#f8cecc;strokeColor=#b85450;" parent="1" vertex="1">
          <mxGeometry x="440" y="800" width="120" height="60" as="geometry" />
        </mxCell>
        <mxCell id="l5dD-DMRnh2UDKKwASvm-42" style="edgeStyle=orthogonalEdgeStyle;rounded=0;orthogonalLoop=1;jettySize=auto;html=1;exitX=0.5;exitY=0;exitDx=0;exitDy=0;entryX=0;entryY=0.5;entryDx=0;entryDy=0;" parent="1" source="l5dD-DMRnh2UDKKwASvm-34" target="l5dD-DMRnh2UDKKwASvm-33" edge="1">
          <mxGeometry relative="1" as="geometry" />
        </mxCell>
        <mxCell id="l5dD-DMRnh2UDKKwASvm-81" style="edgeStyle=orthogonalEdgeStyle;rounded=0;orthogonalLoop=1;jettySize=auto;html=1;exitX=0.75;exitY=0;exitDx=0;exitDy=0;entryX=0.25;entryY=1;entryDx=0;entryDy=0;" parent="1" source="l5dD-DMRnh2UDKKwASvm-34" target="l5dD-DMRnh2UDKKwASvm-59" edge="1">
          <mxGeometry relative="1" as="geometry">
            <Array as="points">
              <mxPoint x="330" y="720" />
              <mxPoint x="870" y="720" />
            </Array>
          </mxGeometry>
        </mxCell>
        <mxCell id="l5dD-DMRnh2UDKKwASvm-34" value="createtext" style="rounded=0;whiteSpace=wrap;html=1;fillColor=#d5e8d4;strokeColor=#82b366;" parent="1" vertex="1">
          <mxGeometry x="240" y="940" width="120" height="60" as="geometry" />
        </mxCell>
        <mxCell id="l5dD-DMRnh2UDKKwASvm-46" style="edgeStyle=orthogonalEdgeStyle;rounded=0;orthogonalLoop=1;jettySize=auto;html=1;exitX=0.5;exitY=0;exitDx=0;exitDy=0;entryX=1;entryY=0.5;entryDx=0;entryDy=0;" parent="1" source="l5dD-DMRnh2UDKKwASvm-35" target="l5dD-DMRnh2UDKKwASvm-33" edge="1">
          <mxGeometry relative="1" as="geometry" />
        </mxCell>
        <mxCell id="l5dD-DMRnh2UDKKwASvm-90" style="edgeStyle=orthogonalEdgeStyle;rounded=0;orthogonalLoop=1;jettySize=auto;html=1;exitX=1;exitY=0.5;exitDx=0;exitDy=0;entryX=0.25;entryY=1;entryDx=0;entryDy=0;" parent="1" source="l5dD-DMRnh2UDKKwASvm-35" target="l5dD-DMRnh2UDKKwASvm-58" edge="1">
          <mxGeometry relative="1" as="geometry" />
        </mxCell>
        <mxCell id="l5dD-DMRnh2UDKKwASvm-35" value="createstatictext" style="rounded=0;whiteSpace=wrap;html=1;fillColor=#d5e8d4;strokeColor=#82b366;" parent="1" vertex="1">
          <mxGeometry x="640" y="940" width="120" height="60" as="geometry" />
        </mxCell>
        <mxCell id="l5dD-DMRnh2UDKKwASvm-78" style="edgeStyle=orthogonalEdgeStyle;rounded=0;orthogonalLoop=1;jettySize=auto;html=1;exitX=0;exitY=0.5;exitDx=0;exitDy=0;entryX=1;entryY=0.5;entryDx=0;entryDy=0;" parent="1" source="l5dD-DMRnh2UDKKwASvm-36" target="l5dD-DMRnh2UDKKwASvm-34" edge="1">
          <mxGeometry relative="1" as="geometry" />
        </mxCell>
        <mxCell id="l5dD-DMRnh2UDKKwASvm-79" style="edgeStyle=orthogonalEdgeStyle;rounded=0;orthogonalLoop=1;jettySize=auto;html=1;exitX=1;exitY=0.5;exitDx=0;exitDy=0;entryX=0;entryY=0.5;entryDx=0;entryDy=0;" parent="1" source="l5dD-DMRnh2UDKKwASvm-36" target="l5dD-DMRnh2UDKKwASvm-35" edge="1">
          <mxGeometry relative="1" as="geometry" />
        </mxCell>
        <mxCell id="l5dD-DMRnh2UDKKwASvm-36" value="loadtext" style="rounded=0;whiteSpace=wrap;html=1;fillColor=#ffe6cc;strokeColor=#d79b00;" parent="1" vertex="1">
          <mxGeometry x="440" y="940" width="120" height="60" as="geometry" />
        </mxCell>
        <mxCell id="l5dD-DMRnh2UDKKwASvm-72" style="edgeStyle=orthogonalEdgeStyle;rounded=0;orthogonalLoop=1;jettySize=auto;html=1;exitX=0;exitY=0.5;exitDx=0;exitDy=0;entryX=0.5;entryY=1;entryDx=0;entryDy=0;" parent="1" source="l5dD-DMRnh2UDKKwASvm-37" target="l5dD-DMRnh2UDKKwASvm-34" edge="1">
          <mxGeometry relative="1" as="geometry" />
        </mxCell>
        <mxCell id="l5dD-DMRnh2UDKKwASvm-73" style="edgeStyle=orthogonalEdgeStyle;rounded=0;orthogonalLoop=1;jettySize=auto;html=1;exitX=1;exitY=0.5;exitDx=0;exitDy=0;entryX=0.25;entryY=1;entryDx=0;entryDy=0;" parent="1" source="l5dD-DMRnh2UDKKwASvm-37" target="l5dD-DMRnh2UDKKwASvm-35" edge="1">
          <mxGeometry relative="1" as="geometry" />
        </mxCell>
        <mxCell id="l5dD-DMRnh2UDKKwASvm-37" value="rendertext" style="rounded=0;whiteSpace=wrap;html=1;fillColor=#ffe6cc;strokeColor=#d79b00;" parent="1" vertex="1">
          <mxGeometry x="440" y="1080" width="120" height="60" as="geometry" />
        </mxCell>
        <mxCell id="l5dD-DMRnh2UDKKwASvm-41" style="edgeStyle=orthogonalEdgeStyle;rounded=0;orthogonalLoop=1;jettySize=auto;html=1;exitX=0.5;exitY=0;exitDx=0;exitDy=0;entryX=0.5;entryY=0;entryDx=0;entryDy=0;" parent="1" source="l5dD-DMRnh2UDKKwASvm-38" target="l5dD-DMRnh2UDKKwASvm-33" edge="1">
          <mxGeometry relative="1" as="geometry" />
        </mxCell>
        <mxCell id="l5dD-DMRnh2UDKKwASvm-84" style="edgeStyle=orthogonalEdgeStyle;rounded=0;orthogonalLoop=1;jettySize=auto;html=1;exitX=0.25;exitY=0;exitDx=0;exitDy=0;entryX=0;entryY=0.75;entryDx=0;entryDy=0;" parent="1" source="l5dD-DMRnh2UDKKwASvm-38" target="l5dD-DMRnh2UDKKwASvm-60" edge="1">
          <mxGeometry relative="1" as="geometry">
            <Array as="points">
              <mxPoint x="70" y="700" />
              <mxPoint x="620" y="700" />
              <mxPoint x="620" y="665" />
            </Array>
          </mxGeometry>
        </mxCell>
        <mxCell id="l5dD-DMRnh2UDKKwASvm-38" value="updatetext" style="rounded=0;whiteSpace=wrap;html=1;fillColor=#d5e8d4;strokeColor=#82b366;" parent="1" vertex="1">
          <mxGeometry x="40" y="940" width="120" height="60" as="geometry" />
        </mxCell>
        <mxCell id="l5dD-DMRnh2UDKKwASvm-70" style="edgeStyle=orthogonalEdgeStyle;rounded=0;orthogonalLoop=1;jettySize=auto;html=1;exitX=0;exitY=0.5;exitDx=0;exitDy=0;entryX=0.75;entryY=1;entryDx=0;entryDy=0;" parent="1" source="l5dD-DMRnh2UDKKwASvm-39" target="l5dD-DMRnh2UDKKwASvm-38" edge="1">
          <mxGeometry relative="1" as="geometry" />
        </mxCell>
        <mxCell id="l5dD-DMRnh2UDKKwASvm-74" style="edgeStyle=orthogonalEdgeStyle;rounded=0;orthogonalLoop=1;jettySize=auto;html=1;exitX=1;exitY=0.5;exitDx=0;exitDy=0;entryX=0.75;entryY=1;entryDx=0;entryDy=0;" parent="1" source="l5dD-DMRnh2UDKKwASvm-39" target="l5dD-DMRnh2UDKKwASvm-35" edge="1">
          <mxGeometry relative="1" as="geometry" />
        </mxCell>
        <mxCell id="l5dD-DMRnh2UDKKwASvm-39" value="changerecttext" style="rounded=0;whiteSpace=wrap;html=1;fillColor=#ffe6cc;strokeColor=#d79b00;" parent="1" vertex="1">
          <mxGeometry x="440" y="1220" width="120" height="60" as="geometry" />
        </mxCell>
        <mxCell id="l5dD-DMRnh2UDKKwASvm-71" style="edgeStyle=orthogonalEdgeStyle;rounded=0;orthogonalLoop=1;jettySize=auto;html=1;exitX=0;exitY=0.5;exitDx=0;exitDy=0;entryX=0.25;entryY=1;entryDx=0;entryDy=0;" parent="1" source="l5dD-DMRnh2UDKKwASvm-40" target="l5dD-DMRnh2UDKKwASvm-38" edge="1">
          <mxGeometry relative="1" as="geometry" />
        </mxCell>
        <mxCell id="l5dD-DMRnh2UDKKwASvm-91" style="edgeStyle=orthogonalEdgeStyle;rounded=0;orthogonalLoop=1;jettySize=auto;html=1;exitX=1;exitY=0.5;exitDx=0;exitDy=0;entryX=0.75;entryY=1;entryDx=0;entryDy=0;" parent="1" source="l5dD-DMRnh2UDKKwASvm-40" target="l5dD-DMRnh2UDKKwASvm-58" edge="1">
          <mxGeometry relative="1" as="geometry" />
        </mxCell>
        <mxCell id="l5dD-DMRnh2UDKKwASvm-40" value="blittext" style="rounded=0;whiteSpace=wrap;html=1;fillColor=#ffe6cc;strokeColor=#d79b00;" parent="1" vertex="1">
          <mxGeometry x="440" y="1360" width="120" height="60" as="geometry" />
        </mxCell>
        <mxCell id="l5dD-DMRnh2UDKKwASvm-53" value="Button" style="rounded=0;whiteSpace=wrap;html=1;fillColor=#f8cecc;strokeColor=#b85450;" parent="1" vertex="1">
          <mxGeometry x="1160" y="620" width="120" height="60" as="geometry" />
        </mxCell>
        <mxCell id="l5dD-DMRnh2UDKKwASvm-58" value="createstaticbutton" style="rounded=0;whiteSpace=wrap;html=1;fillColor=#d5e8d4;strokeColor=#82b366;" parent="1" vertex="1">
          <mxGeometry x="1000" y="620" width="120" height="60" as="geometry" />
        </mxCell>
        <mxCell id="l5dD-DMRnh2UDKKwASvm-59" value="createbutton" style="rounded=0;whiteSpace=wrap;html=1;fillColor=#d5e8d4;strokeColor=#82b366;" parent="1" vertex="1">
          <mxGeometry x="840" y="620" width="120" height="60" as="geometry" />
        </mxCell>
        <mxCell id="l5dD-DMRnh2UDKKwASvm-60" value="updatebutton" style="rounded=0;whiteSpace=wrap;html=1;fillColor=#d5e8d4;strokeColor=#82b366;" parent="1" vertex="1">
          <mxGeometry x="680" y="620" width="120" height="60" as="geometry" />
        </mxCell>
        <mxCell id="l5dD-DMRnh2UDKKwASvm-93" value="ManageWindow" style="rounded=0;whiteSpace=wrap;html=1;fillColor=#1A1A1A;strokeColor=#660000;fontColor=#ffffff;" parent="1" vertex="1">
          <mxGeometry x="1759.5" y="40" width="120" height="60" as="geometry" />
        </mxCell>
        <mxCell id="l5dD-DMRnh2UDKKwASvm-110" style="edgeStyle=orthogonalEdgeStyle;rounded=0;orthogonalLoop=1;jettySize=auto;html=1;exitX=0.5;exitY=0;exitDx=0;exitDy=0;entryX=0.5;entryY=1;entryDx=0;entryDy=0;" parent="1" source="l5dD-DMRnh2UDKKwASvm-94" target="l5dD-DMRnh2UDKKwASvm-93" edge="1">
          <mxGeometry relative="1" as="geometry" />
        </mxCell>
        <mxCell id="l5dD-DMRnh2UDKKwASvm-94" value="Window" style="rounded=0;whiteSpace=wrap;html=1;fillColor=#e1d5e7;strokeColor=#9673a6;" parent="1" vertex="1">
          <mxGeometry x="1759.5" y="160" width="120" height="60" as="geometry" />
        </mxCell>
        <mxCell id="l5dD-DMRnh2UDKKwASvm-111" style="edgeStyle=orthogonalEdgeStyle;rounded=0;orthogonalLoop=1;jettySize=auto;html=1;exitX=0.75;exitY=0;exitDx=0;exitDy=0;entryX=0.25;entryY=1;entryDx=0;entryDy=0;" parent="1" source="l5dD-DMRnh2UDKKwASvm-95" target="l5dD-DMRnh2UDKKwASvm-94" edge="1">
          <mxGeometry relative="1" as="geometry" />
        </mxCell>
        <mxCell id="l5dD-DMRnh2UDKKwASvm-95" value="MenuWindow" style="rounded=0;whiteSpace=wrap;html=1;fillColor=#dae8fc;strokeColor=#6c8ebf;" parent="1" vertex="1">
          <mxGeometry x="1679.5" y="280" width="120" height="60" as="geometry" />
        </mxCell>
        <mxCell id="l5dD-DMRnh2UDKKwASvm-112" style="edgeStyle=orthogonalEdgeStyle;rounded=0;orthogonalLoop=1;jettySize=auto;html=1;exitX=0.25;exitY=0;exitDx=0;exitDy=0;entryX=0.75;entryY=1;entryDx=0;entryDy=0;" parent="1" source="l5dD-DMRnh2UDKKwASvm-96" target="l5dD-DMRnh2UDKKwASvm-94" edge="1">
          <mxGeometry relative="1" as="geometry" />
        </mxCell>
        <mxCell id="l5dD-DMRnh2UDKKwASvm-96" value="GameWindow" style="rounded=0;whiteSpace=wrap;html=1;fillColor=#dae8fc;strokeColor=#6c8ebf;" parent="1" vertex="1">
          <mxGeometry x="1839.5" y="280" width="120" height="60" as="geometry" />
        </mxCell>
        <mxCell id="l5dD-DMRnh2UDKKwASvm-122" style="edgeStyle=orthogonalEdgeStyle;rounded=0;orthogonalLoop=1;jettySize=auto;html=1;entryX=0.5;entryY=1;entryDx=0;entryDy=0;" parent="1" target="l5dD-DMRnh2UDKKwASvm-95" edge="1">
          <mxGeometry relative="1" as="geometry">
            <mxPoint x="1950.5" y="500" as="sourcePoint" />
            <Array as="points">
              <mxPoint x="1950.5" y="500" />
              <mxPoint x="1950.5" y="420" />
              <mxPoint x="1739.5" y="420" />
            </Array>
          </mxGeometry>
        </mxCell>
        <mxCell id="l5dD-DMRnh2UDKKwASvm-126" style="edgeStyle=orthogonalEdgeStyle;rounded=0;orthogonalLoop=1;jettySize=auto;html=1;exitX=0.75;exitY=0;exitDx=0;exitDy=0;entryX=0.5;entryY=1;entryDx=0;entryDy=0;" parent="1" source="l5dD-DMRnh2UDKKwASvm-97" target="l5dD-DMRnh2UDKKwASvm-96" edge="1">
          <mxGeometry relative="1" as="geometry">
            <Array as="points">
              <mxPoint x="2009.5" y="400" />
              <mxPoint x="1899.5" y="400" />
            </Array>
          </mxGeometry>
        </mxCell>
        <mxCell id="l5dD-DMRnh2UDKKwASvm-97" value="Image" style="rounded=0;whiteSpace=wrap;html=1;fillColor=#f8cecc;strokeColor=#b85450;" parent="1" vertex="1">
          <mxGeometry x="1919" y="500" width="120" height="60" as="geometry" />
        </mxCell>
        <mxCell id="l5dD-DMRnh2UDKKwASvm-117" style="edgeStyle=orthogonalEdgeStyle;rounded=0;orthogonalLoop=1;jettySize=auto;html=1;exitX=1;exitY=0.5;exitDx=0;exitDy=0;entryX=0;entryY=0.5;entryDx=0;entryDy=0;" parent="1" source="l5dD-DMRnh2UDKKwASvm-98" target="l5dD-DMRnh2UDKKwASvm-97" edge="1">
          <mxGeometry relative="1" as="geometry" />
        </mxCell>
        <mxCell id="l5dD-DMRnh2UDKKwASvm-121" style="edgeStyle=orthogonalEdgeStyle;rounded=0;orthogonalLoop=1;jettySize=auto;html=1;exitX=0.25;exitY=0;exitDx=0;exitDy=0;entryX=0.25;entryY=1;entryDx=0;entryDy=0;" parent="1" source="l5dD-DMRnh2UDKKwASvm-98" target="l5dD-DMRnh2UDKKwASvm-95" edge="1">
          <mxGeometry relative="1" as="geometry">
            <Array as="points">
              <mxPoint x="1789.5" y="460" />
              <mxPoint x="1709.5" y="460" />
            </Array>
          </mxGeometry>
        </mxCell>
        <mxCell id="l5dD-DMRnh2UDKKwASvm-124" style="edgeStyle=orthogonalEdgeStyle;rounded=0;orthogonalLoop=1;jettySize=auto;html=1;exitX=0.75;exitY=0;exitDx=0;exitDy=0;entryX=0.25;entryY=1;entryDx=0;entryDy=0;" parent="1" source="l5dD-DMRnh2UDKKwASvm-98" target="l5dD-DMRnh2UDKKwASvm-96" edge="1">
          <mxGeometry relative="1" as="geometry">
            <Array as="points">
              <mxPoint x="1849.5" y="460" />
              <mxPoint x="1869.5" y="460" />
            </Array>
          </mxGeometry>
        </mxCell>
        <mxCell id="l5dD-DMRnh2UDKKwASvm-98" value="Text" style="rounded=0;whiteSpace=wrap;html=1;fillColor=#f8cecc;strokeColor=#b85450;" parent="1" vertex="1">
          <mxGeometry x="1759" y="500" width="120" height="60" as="geometry" />
        </mxCell>
        <mxCell id="l5dD-DMRnh2UDKKwASvm-115" style="edgeStyle=orthogonalEdgeStyle;rounded=0;orthogonalLoop=1;jettySize=auto;html=1;exitX=0;exitY=0.5;exitDx=0;exitDy=0;entryX=1;entryY=0.5;entryDx=0;entryDy=0;" parent="1" source="l5dD-DMRnh2UDKKwASvm-99" target="l5dD-DMRnh2UDKKwASvm-97" edge="1">
          <mxGeometry relative="1" as="geometry" />
        </mxCell>
        <mxCell id="l5dD-DMRnh2UDKKwASvm-123" style="edgeStyle=orthogonalEdgeStyle;rounded=0;orthogonalLoop=1;jettySize=auto;html=1;exitX=0.25;exitY=0;exitDx=0;exitDy=0;entryX=0.75;entryY=1;entryDx=0;entryDy=0;" parent="1" source="l5dD-DMRnh2UDKKwASvm-99" target="l5dD-DMRnh2UDKKwASvm-95" edge="1">
          <mxGeometry relative="1" as="geometry">
            <Array as="points">
              <mxPoint x="2109.5" y="380" />
              <mxPoint x="1769.5" y="380" />
            </Array>
          </mxGeometry>
        </mxCell>
        <mxCell id="l5dD-DMRnh2UDKKwASvm-127" style="edgeStyle=orthogonalEdgeStyle;rounded=0;orthogonalLoop=1;jettySize=auto;html=1;exitX=0.75;exitY=0;exitDx=0;exitDy=0;entryX=0.75;entryY=1;entryDx=0;entryDy=0;" parent="1" source="l5dD-DMRnh2UDKKwASvm-99" target="l5dD-DMRnh2UDKKwASvm-96" edge="1">
          <mxGeometry relative="1" as="geometry">
            <Array as="points">
              <mxPoint x="2169.5" y="360" />
              <mxPoint x="1929.5" y="360" />
            </Array>
          </mxGeometry>
        </mxCell>
        <mxCell id="l5dD-DMRnh2UDKKwASvm-99" value="Animation" style="rounded=0;whiteSpace=wrap;html=1;fillColor=#f8cecc;strokeColor=#b85450;" parent="1" vertex="1">
          <mxGeometry x="2079" y="500" width="120" height="60" as="geometry" />
        </mxCell>
        <mxCell id="l5dD-DMRnh2UDKKwASvm-120" style="edgeStyle=orthogonalEdgeStyle;rounded=0;orthogonalLoop=1;jettySize=auto;html=1;exitX=0.5;exitY=0;exitDx=0;exitDy=0;entryX=0;entryY=0.25;entryDx=0;entryDy=0;" parent="1" source="l5dD-DMRnh2UDKKwASvm-100" target="l5dD-DMRnh2UDKKwASvm-95" edge="1">
          <mxGeometry relative="1" as="geometry" />
        </mxCell>
        <mxCell id="l5dD-DMRnh2UDKKwASvm-129" style="edgeStyle=orthogonalEdgeStyle;rounded=0;orthogonalLoop=1;jettySize=auto;html=1;exitX=0.75;exitY=1;exitDx=0;exitDy=0;" parent="1" source="l5dD-DMRnh2UDKKwASvm-100" edge="1">
          <mxGeometry relative="1" as="geometry">
            <Array as="points">
              <mxPoint x="1530" y="590" />
              <mxPoint x="2230" y="590" />
              <mxPoint x="2230" y="300" />
              <mxPoint x="1960" y="300" />
            </Array>
            <mxPoint x="1960" y="300" as="targetPoint" />
          </mxGeometry>
        </mxCell>
        <mxCell id="l5dD-DMRnh2UDKKwASvm-100" value="Music" style="rounded=0;whiteSpace=wrap;html=1;fillColor=#f8cecc;strokeColor=#b85450;" parent="1" vertex="1">
          <mxGeometry x="1440" y="500" width="120" height="60" as="geometry" />
        </mxCell>
        <mxCell id="l5dD-DMRnh2UDKKwASvm-118" style="edgeStyle=orthogonalEdgeStyle;rounded=0;orthogonalLoop=1;jettySize=auto;html=1;exitX=1;exitY=0.5;exitDx=0;exitDy=0;entryX=0;entryY=0.5;entryDx=0;entryDy=0;" parent="1" source="l5dD-DMRnh2UDKKwASvm-101" target="l5dD-DMRnh2UDKKwASvm-98" edge="1">
          <mxGeometry relative="1" as="geometry" />
        </mxCell>
        <mxCell id="l5dD-DMRnh2UDKKwASvm-119" style="edgeStyle=orthogonalEdgeStyle;rounded=0;orthogonalLoop=1;jettySize=auto;html=1;exitX=0.5;exitY=0;exitDx=0;exitDy=0;entryX=0;entryY=0.75;entryDx=0;entryDy=0;" parent="1" source="l5dD-DMRnh2UDKKwASvm-101" target="l5dD-DMRnh2UDKKwASvm-95" edge="1">
          <mxGeometry relative="1" as="geometry" />
        </mxCell>
        <mxCell id="BmCiUokjNVbRiMDxkL9E-1" style="edgeStyle=orthogonalEdgeStyle;rounded=0;orthogonalLoop=1;jettySize=auto;html=1;exitX=0.75;exitY=1;exitDx=0;exitDy=0;" edge="1" parent="1" source="l5dD-DMRnh2UDKKwASvm-101">
          <mxGeometry relative="1" as="geometry">
            <mxPoint x="1960" y="320" as="targetPoint" />
            <Array as="points">
              <mxPoint x="1689" y="570" />
              <mxPoint x="2210" y="570" />
              <mxPoint x="2210" y="320" />
              <mxPoint x="1960" y="320" />
            </Array>
          </mxGeometry>
        </mxCell>
        <mxCell id="l5dD-DMRnh2UDKKwASvm-101" value="Button" style="rounded=0;whiteSpace=wrap;html=1;fillColor=#f8cecc;strokeColor=#b85450;" parent="1" vertex="1">
          <mxGeometry x="1599" y="500" width="120" height="60" as="geometry" />
        </mxCell>
        <mxCell id="l5dD-DMRnh2UDKKwASvm-130" value="Главный&lt;br&gt;класс" style="rounded=0;whiteSpace=wrap;html=1;strokeColor=#660000;fillColor=#1A1A1A;fontColor=#FFFFFF;" parent="1" vertex="1">
          <mxGeometry x="1280" y="40" width="120" height="60" as="geometry" />
        </mxCell>
        <mxCell id="l5dD-DMRnh2UDKKwASvm-131" value="Родительский&lt;br&gt;класс" style="rounded=0;whiteSpace=wrap;html=1;fillColor=#e1d5e7;strokeColor=#9673a6;" parent="1" vertex="1">
          <mxGeometry x="1280" y="160" width="120" height="60" as="geometry" />
        </mxCell>
        <mxCell id="l5dD-DMRnh2UDKKwASvm-132" value="Дочерний&lt;br&gt;класс" style="rounded=0;whiteSpace=wrap;html=1;fillColor=#dae8fc;strokeColor=#6c8ebf;" parent="1" vertex="1">
          <mxGeometry x="1280" y="280" width="120" height="60" as="geometry" />
        </mxCell>
        <mxCell id="l5dD-DMRnh2UDKKwASvm-133" value="Класс объектов&lt;br&gt;и функций" style="rounded=0;whiteSpace=wrap;html=1;fillColor=#f8cecc;strokeColor=#b85450;" parent="1" vertex="1">
          <mxGeometry x="1280" y="500" width="120" height="60" as="geometry" />
        </mxCell>
      </root>
    </mxGraphModel>
  </diagram>
</mxfile>
